<?xml version="1.0" encoding="iso-8859-1"?>
<!-- Uploaded to: SVG Repo, www.svgrepo.com, Generator: SVG Repo Mixer Tools -->
<svg height="800px" width="800px" version="1.1" id="Layer_1" xmlns="http://www.w3.org/2000/svg" xmlns:xlink="http://www.w3.org/1999/xlink" 
	 viewBox="0 0 511.357 511.357" xml:space="preserve">
<g>
	<polygon style="fill:#F4511E;" points="32.157,317.279 42.557,329.279 25.357,354.878 4.157,330.479 	"/>
	<polygon style="fill:#F4511E;" points="508.157,330.479 486.957,354.878 469.757,329.279 480.157,317.279 	"/>
	<path style="fill:#F4511E;" d="M467.357,226.479c28.8,24,32.4,67.2,8.4,96c-13.6,16-32.8,24.4-52,24.4c-15.6,0-30.8-5.2-43.6-16
		c-28.4-24-74.8-38.4-124-38.4s-95.2,14.4-124,38.4s-71.6,20.4-96-8.4c-24-28.8-20.4-71.6,8.4-96c53.2-44.4,130-70,211.2-70
		C337.357,156.479,414.157,182.079,467.357,226.479z"/>
</g>
<path style="fill:#FF7043;" d="M454.557,241.679c20.4,17.2,22.8,47.2,6,67.6c-9.2,10.8-22.4,17.2-36.8,17.2c-11.2,0-22-4-30.8-11.2
	c-32-26.8-83.2-42.8-136.8-42.8s-104.8,16-136.8,42.8c-8.4,7.2-19.6,11.2-30.8,11.2c-14.4,0-27.6-6.4-36.8-17.2
	c-17.2-20.4-14.4-50.4,6-67.6c49.6-41.6,122-65.2,198.4-65.2l54,4l63.2,15.6l67.2,34.4
	C444.957,234.079,449.757,238.079,454.557,241.679z"/>
<path d="M25.357,358.878c-1.2,0-2.4-0.4-3.2-1.2l-21.2-24.4c-0.8-0.8-1.2-2.4-0.8-3.6s1.2-2.4,2-2.8l27.6-13.2c2-0.8,4.4,0,5.2,2
	s0,4.4-2,5.2l-23.2,11.2l14.4,16.4l14-21.2c1.2-2,3.6-2.4,5.6-1.2s2.4,3.6,1.2,5.6l-17.2,25.6
	C28.157,358.079,26.957,358.878,25.357,358.878C25.757,358.878,25.357,358.878,25.357,358.878z"/>
<path d="M486.957,358.878C486.957,358.878,486.557,358.878,486.957,358.878c-1.6,0-2.8-0.8-3.2-1.6l-17.2-25.6
	c-1.2-2-0.8-4.4,1.2-5.6s4.4-0.8,5.6,1.2l14,21.2l14.4-16.4l-23.2-11.2c-2-0.8-2.8-3.2-2-5.2s3.2-2.8,5.2-2l27.6,13.2
	c1.2,0.4,2,1.6,2,2.8s0,2.4-0.8,3.6l-21.2,24.4C488.957,358.479,488.157,358.878,486.957,358.878z"/>
<path d="M88.557,350.479c-2,0-4.4,0-6.4-0.4c-19.2-1.6-36.4-10.8-48.8-25.6c-12.4-14.8-18.4-33.2-16.4-52.4s10.8-36.4,25.6-48.8
	c53.6-45.2,131.6-70.8,214-70.8c82,0,160,26,214,70.8c30.4,25.6,34.4,71.2,8.8,101.6c-13.6,16.4-34,25.6-55.2,25.6
	c-16.8,0-33.2-6-46.4-16.8c-28-23.2-73.2-37.2-121.2-37.2s-93.6,14-121.2,37.2C121.757,344.878,105.357,350.479,88.557,350.479z
	 M256.157,160.479c-80.4,0-156.4,25.2-208.8,69.2c-13.2,10.8-21.2,26.4-22.8,43.6s3.6,33.6,14.8,46.8c10.8,13.2,26.4,21.2,43.6,22.8
	c17.2,1.6,33.6-3.6,46.8-14.8c29.2-24.4,76.4-39.2,126.4-39.2s97.2,14.8,126.4,39.2c11.6,9.6,26,14.8,41.2,14.8
	c18.8,0,36.8-8.4,49.2-22.8c22.8-27.2,19.2-67.6-8-90C412.157,185.679,336.157,160.479,256.157,160.479z"/>
<path d="M423.357,330.479c-12,0-24-4.4-33.2-12c-31.2-26.4-81.6-42-134-42c-52.8,0-102.8,15.6-134,42c-9.2,8-21.2,12-33.2,12
	c-15.6,0-30-6.8-40-18.4c-8.8-10.8-13.2-24-12-38s7.6-26.4,18.4-35.2c50.4-42,123.6-66.4,200.8-66.4c2.4,0,4,1.6,4,4s-1.6,4-4,4
	c-75.6,0-146.8,23.6-196,64.4c-8.8,7.6-14.4,18-15.6,30c-1.2,11.6,2.4,23.2,10,32c8.4,10,20.8,15.6,33.6,15.6
	c10.4,0,20.4-3.6,28.4-10.4c32.8-27.6,84.8-44,139.2-44l0,0c54.4,0,106.4,16.4,139.2,44c8,6.8,18,10.4,28.4,10.4
	c13.2,0,25.2-5.6,33.6-15.6c15.6-18.4,13.2-46.4-5.6-62c-4.4-3.6-9.2-7.2-14-10.8c-1.6-1.2-2.4-3.6-0.8-5.6c1.2-1.6,3.6-2.4,5.6-0.8
	c5.2,3.6,10,7.6,14.4,11.2c22,18.4,24.8,51.2,6.4,73.2C453.357,323.679,438.957,330.479,423.357,330.479z"/>
<path d="M397.757,210.479c-0.4,0-1.2,0-1.6-0.4c-41.6-19.2-90.4-29.6-140-29.6c-2.4,0-4-1.6-4-4s1.6-4,4-4
	c51.2,0,100.8,10.4,143.6,30.4c2,0.8,2.8,3.2,2,5.2C400.957,209.278,399.357,210.479,397.757,210.479z"/>
</svg>